<svg xmlns="http://www.w3.org/2000/svg" viewBox="0 0 16 16">
  <rect width="16" height="12" y="2" fill="#151515" color="#000" overflow="visible" rx="1.4" ry="1.4" style="isolation:auto;mix-blend-mode:normal"/>
  <path fill="#fff" d="M1.7 3c-.389 0-.7.311-.7.7v8.6c0 .389.311.7.7.7h1.728a1.15 1.15 0 0 1-.028-.25 1.15 1.15 0 0 1 1.15-1.15 1.15 1.15 0 0 1 1.15 1.15 1.15 1.15 0 0 1-.028.25h4.656a1.15 1.15 0 0 1-.027-.25 1.15 1.15 0 0 1 1.148-1.15 1.15 1.15 0 0 1 1.15 1.15 1.15 1.15 0 0 1-.029.25h1.73c.389 0 .7-.311.7-.7V3.7c0-.389-.311-.7-.7-.7H1.7zm4.015 1.05A2.294 2.294 0 0 1 8 6.337c0 .612-.248 1.168-.645 1.58 1.06.585 1.788 1.7 1.788 2.99H8a2.276 2.276 0 0 0-2.285-2.285 2.277 2.277 0 0 0-2.287 2.285H2.285c0-1.29.73-2.405 1.79-2.99a2.274 2.274 0 0 1-.647-1.58A2.295 2.295 0 0 1 5.715 4.05zm0 1.143c-.638 0-1.143.505-1.143 1.143s.505 1.143 1.143 1.143 1.142-.505 1.142-1.143-.504-1.143-1.142-1.143zm4.57 1.143h3.43v1.143h-3.43V6.336zm0 2.285h3.43v1.143h-3.43V8.62z" color="#000" overflow="visible" style="isolation:auto;mix-blend-mode:normal"/>
</svg>
