<svg xmlns="http://www.w3.org/2000/svg" viewBox="0 0 16 16">
  <path fill="#eee" d="M0 0h16v16H0z" color="#333" overflow="visible" style="isolation:auto;mix-blend-mode:normal"/>
  <path fill="#000" d="M3.05 3.5C2.47 3.5 2 3.969 2 4.55v6.9c0 .581.469 1.05 1.05 1.05h9.9c.581 0 1.05-.469 1.05-1.05v-6.9c0-.581-.469-1.05-1.05-1.05h-9.9zm.224.75h9.452c.29 0 .524.234.524.524v6.452c0 .29-.234.524-.524.524h-1.298a.862.862 0 0 0 .022-.188.862.862 0 0 0-.863-.862.862.862 0 0 0-.861.862.862.862 0 0 0 .02.188H6.254a.862.862 0 0 0 .02-.188.862.862 0 0 0-.86-.862.862.862 0 0 0-.864.862.862.862 0 0 0 .02.188H3.275a.523.523 0 0 1-.524-.524V4.774c0-.29.234-.524.524-.524zm3.012.788c-.942 0-1.715.772-1.715 1.714 0 .46.187.876.485 1.185a2.567 2.567 0 0 0-1.342 2.243h.857c0-.952.763-1.714 1.715-1.714.952 0 1.714.762 1.714 1.714h.857c0-.968-.546-1.804-1.34-2.243.297-.309.483-.726.483-1.185a1.72 1.72 0 0 0-1.714-1.714zm0 .857a.85.85 0 0 1 .857.857.85.85 0 0 1-.857.857.85.85 0 0 1-.857-.857.85.85 0 0 1 .857-.857zm3.428.857v.857h2.572v-.857H9.714zm0 1.714v.857h2.572v-.857H9.714z" color="#ccc" overflow="visible" style="isolation:auto;mix-blend-mode:normal"/>
</svg>
