<svg xmlns="http://www.w3.org/2000/svg" viewBox="2 -5 16 16">
  <path fill="#888" d="M2-1v12h12.69V.81H7.08L5.95-1H2z"/>
  <rect style="isolation:auto;mix-blend-mode:normal" width="12" height="9" x="4" y="-3" fill="#151515" color="#000" overflow="visible" rx="1.4" ry="1.4"/>
  <path style="isolation:auto;mix-blend-mode:normal" fill="#fff" d="M5.274-2.25a.523.523 0 0 0-.524.524v6.452c0 .29.234.524.524.524h1.297a.862.862 0 0 1-.02-.188.862.862 0 0 1 .862-.862.862.862 0 0 1 .861.862.862.862 0 0 1-.02.188h3.492a.862.862 0 0 1-.02-.188.862.862 0 0 1 .86-.862.862.862 0 0 1 .864.862.862.862 0 0 1-.022.188h1.298c.29 0 .524-.234.524-.524v-6.452a.523.523 0 0 0-.524-.524H5.274zm3.012.788A1.72 1.72 0 0 1 10 .252c0 .46-.186.876-.483 1.185a2.566 2.566 0 0 1 1.34 2.243H10c0-.952-.762-1.714-1.714-1.714s-1.715.762-1.715 1.714h-.857c0-.968.547-1.804 1.342-2.243A1.706 1.706 0 0 1 6.57.252c0-.942.773-1.714 1.715-1.714zm0 .857a.85.85 0 0 0-.857.857.85.85 0 0 0 .857.857.85.85 0 0 0 .857-.857.85.85 0 0 0-.857-.857zm3.428.857h2.572v.857h-2.572V.252zm0 1.714h2.572v.857h-2.572v-.857z" color="#000" overflow="visible"/>
  <path fill="#AAA" d="M10.26 3.08L8.55 4.4H4.53L2 11h12.96L18 3.08h-7.74z"/>
</svg>
