<svg xmlns="http://www.w3.org/2000/svg" viewBox="0 0 16 16">
  <path fill="#888" d="M0 2v12h12.69V3.81H5.08L3.95 2H0z"/>
  <path fill="#151515" d="M3.058 0c3.33.004 6.661-.006 9.991.006.617.043 1.02.668.94 1.253-.003 2.263.008 4.527-.004 6.79-.043.617-.668 1.021-1.253.94-3.26-.003-6.521.008-9.781-.005-.617-.042-1.02-.668-.94-1.253.003-2.263-.008-4.526.004-6.789A1.05 1.05 0 0 1 3.058.001z"/>
  <path fill="#fff" d="M3.275.75a.527.527 0 0 0-.523.47c-.006 2.1 0 4.198-.002 6.298-.046.318.105.705.47.73h1.37c-.054-.229-.035-.475.111-.672.298-.473 1.056-.5 1.387-.049a.861.861 0 0 1 .168.721l3.51.002c-.054-.23-.037-.476.109-.674.298-.473 1.058-.5 1.389-.049a.86.86 0 0 1 .185.535.74.74 0 0 1-.017.188h1.086c.318.046.705-.105.73-.47.006-2.1 0-4.198.002-6.298.046-.318-.105-.705-.47-.73C9.61.746 6.442.752 3.274.75zm3.01.787C7.227 1.537 8 2.31 8 3.252c0 .46-.187.877-.484 1.186A2.566 2.566 0 0 1 8.857 6.68H8c0-.952-.763-1.713-1.715-1.713-.952 0-1.713.76-1.713 1.713h-.857c0-.968.545-1.804 1.34-2.242a1.705 1.705 0 0 1-.483-1.186 1.72 1.72 0 0 1 1.713-1.715zm0 .858a.851.851 0 0 0-.857.857c0 .478.379.857.857.857a.851.851 0 0 0 .858-.857.851.851 0 0 0-.858-.857zm3.43.857h2.57v.857h-2.57v-.857zm0 1.715h2.57v.855h-2.57v-.855z"/>
  <path fill="#aaa" d="M16 6.08L12.96 14H0l2.53-6.6h4.02l1.71-1.32z"/>
</svg>
